<svg width="94" height="108" viewBox="0 0 94 108" fill="none" xmlns="http://www.w3.org/2000/svg">
<path d="M47.0634 106.633C47.0398 106.642 47.0169 106.651 46.9949 106.66C46.9733 106.652 46.951 106.643 46.9279 106.634C46.5928 106.503 46.0975 106.304 45.465 106.038C44.1998 105.506 42.3868 104.705 40.2088 103.632C35.8495 101.483 30.0447 98.2544 24.2474 93.9303C12.6108 85.2505 1.2501 72.3496 1.25 55.0992V16.8577C1.88973 16.8746 2.53165 16.8831 3.17565 16.8831C19.8929 16.8831 35.2013 11.1395 47 1.61644C58.7987 11.1395 74.1071 16.8831 90.8244 16.8831C91.4684 16.8831 92.1103 16.8746 92.75 16.8577V55.0989C92.75 72.1371 81.3928 85.0383 69.7498 93.7749C63.9511 98.1261 58.1448 101.395 53.7845 103.576C51.606 104.666 49.7925 105.482 48.5269 106.025C47.8942 106.296 47.3988 106.499 47.0634 106.633Z" stroke="white" stroke-width="2.5"/>
<path fill-rule="evenodd" clip-rule="evenodd" d="M11.0678 54.3263V54.3212L11.068 54.2216L11.0677 54.1848V25.8806C11.0677 24.1962 12.4688 22.8757 14.1226 22.9346C14.7082 22.9554 15.2967 22.9659 15.888 22.9659C26.6537 22.9659 36.5359 19.4788 44.3512 13.6549C46.2627 12.2305 49.0694 13.5481 49.0694 16.0188V42.3971H54.6847V32.9438C54.6847 32.0072 55.444 31.2478 56.3807 31.2478H62.2778C62.876 27.5318 66.0979 24.6934 69.9827 24.6934C74.2929 24.6934 77.7871 28.1876 77.7871 32.4978C77.7871 36.8081 74.2929 40.3023 69.9827 40.3023C66.0979 40.3023 62.876 37.4639 62.2778 33.7478H57.1847V43.2011C57.1847 44.1378 56.4254 44.8971 55.4887 44.8971H49.0694V52.2087H63.1697C63.7679 48.4927 66.9898 45.6543 70.8745 45.6543C75.1848 45.6543 78.679 49.1484 78.679 53.4587C78.679 57.769 75.1848 61.2632 70.8745 61.2632C66.9898 61.2632 63.7679 58.4248 63.1697 54.7087H49.0694V62.2427H55.4887C56.4254 62.2427 57.1847 63.002 57.1847 63.9387V73.3919H62.2778C62.876 69.6759 66.0979 66.8375 69.9827 66.8375C74.2929 66.8375 77.7871 70.3316 77.7871 74.6419C77.7871 78.9522 74.2929 82.4464 69.9827 82.4464C66.0979 82.4464 62.876 79.608 62.2778 75.8919H56.3807C55.444 75.8919 54.6847 75.1326 54.6847 74.196V64.7427H49.0694V91.8087C49.0694 93.8727 46.9562 95.3712 44.9667 94.5139C41.223 92.9007 32.857 88.885 25.388 82.3477C17.9293 75.8194 11.0678 66.5025 11.0678 54.3263ZM44.0694 91.3708C35.1214 87.1978 13.6255 75.0292 13.5679 54.4093L13.5678 54.3263L13.5679 54.2697L13.5681 54.1852L13.5679 54.185L13.5677 54.1848V25.8806C13.5677 25.6265 13.7797 25.4239 14.0337 25.433C14.6489 25.4549 15.2671 25.4659 15.888 25.4659C26.401 25.4659 36.1314 22.2998 44.0694 16.9216C44.1208 16.8868 44.1721 16.8519 44.2233 16.8169C44.6052 16.556 44.983 16.2899 45.3565 16.0188C45.5202 15.9 45.6831 15.7802 45.8451 15.6595C46.1424 15.4379 46.5694 15.6481 46.5694 16.0188V16.6314V18.0202V18.2264V89.7586V89.7991V90.7945V91.8087C46.5694 92.1271 46.2484 92.344 45.956 92.218C45.6723 92.0957 45.3614 91.9593 45.026 91.8087C44.7389 91.6798 44.4339 91.5405 44.1124 91.3909L44.0694 91.3708ZM69.9827 37.8023C72.9122 37.8023 75.2871 35.4274 75.2871 32.4978C75.2871 29.5683 72.9122 27.1934 69.9827 27.1934C67.0531 27.1934 64.6782 29.5683 64.6782 32.4978C64.6782 35.4274 67.0531 37.8023 69.9827 37.8023ZM76.179 53.4587C76.179 56.3883 73.8041 58.7632 70.8745 58.7632C67.945 58.7632 65.5701 56.3883 65.5701 53.4587C65.5701 50.5291 67.945 48.1543 70.8745 48.1543C73.8041 48.1543 76.179 50.5291 76.179 53.4587ZM69.9827 69.3375C72.9122 69.3375 75.2871 71.7124 75.2871 74.6419C75.2871 77.5715 72.9122 79.9464 69.9827 79.9464C67.0531 79.9464 64.6782 77.5715 64.6782 74.6419C64.6782 71.7124 67.0531 69.3375 69.9827 69.3375Z" fill="white"/>
</svg>
